<svg xmlns="http://www.w3.org/2000/svg" width="128" height="128" viewBox="0 0 128 128">
  <defs>
    <radialGradient id="spiderBody" cx="38%" cy="30%" r="80%">
      <stop offset="0" stop-color="#8D6FC4"/>
      <stop offset="1" stop-color="#5A3F8C"/>
    </radialGradient>
  </defs>
  <path d="M64 0 V50" stroke="#B9B2CC" stroke-width="3" stroke-linecap="round"/>
  <g stroke="#2B1B33" stroke-width="6" stroke-linecap="round" stroke-linejoin="round" fill="none">
    <path d="M40 64 L20 50 L8 60"/><path d="M34 76 L14 70 L4 84"/><path d="M34 88 L16 94 L8 110"/><path d="M42 100 L28 112 L24 124"/>
    <path d="M88 64 L108 50 L120 60"/><path d="M94 76 L114 70 L124 84"/><path d="M94 88 L112 94 L120 110"/><path d="M86 100 L100 112 L104 124"/>
  </g>
  <circle cx="64" cy="80" r="32" fill="url(#spiderBody)" stroke="#2B1B33" stroke-width="5"/>
  <path d="M40 74 C42 64 48 58 55 55" stroke="#FFFFFF" stroke-opacity=".35" stroke-width="5" stroke-linecap="round" fill="none"/>
  <circle cx="52" cy="76" r="10" fill="#FFFFFF"/><circle cx="76" cy="76" r="10" fill="#FFFFFF"/>
  <circle cx="54" cy="78" r="4.5" fill="#2B1B33"/><circle cx="74" cy="78" r="4.5" fill="#2B1B33"/>
  <path d="M40 62 L60 69" stroke="#2B1B33" stroke-width="5" stroke-linecap="round"/>
  <path d="M88 62 L68 69" stroke="#2B1B33" stroke-width="5" stroke-linecap="round"/>
  <path d="M56 92 Q64 87 72 92" stroke="#2B1B33" stroke-width="3.5" stroke-linecap="round" fill="none"/>
  <path d="M58 92 l2.5 7 2.5 -7z M65 92 l2.5 7 2.5 -7z" fill="#FFFFFF"/>
</svg>
